<svg id="Capa_1" enable-background="new 0 0 512 512" height="512" viewBox="0 0 512 512" width="512" xmlns="http://www.w3.org/2000/svg"><g><circle cx="355.918" cy="60.752" fill="#fbf1cf" r="53.663"/><circle cx="409.581" cy="113.217" fill="#fae0bd" r="53.663"/><path d="m262.006 9.723c-14.619 0-27.824 6.028-37.287 15.723-8.842-15.211-25.303-25.446-44.164-25.446-28.2 0-51.06 22.86-51.06 51.06s22.861 51.06 51.06 51.06c14.038 0 26.75-5.668 35.98-14.836 8.922 15.906 25.936 26.662 45.471 26.662 28.781 0 52.112-23.331 52.112-52.112 0-28.78-23.331-52.111-52.112-52.111z" fill="#fae0bd"/><g fill="#fbf1cf"><path d="m180.395 59.554c-10.375 0-20.056 2.952-28.266 8.051-9.767-10.19-23.504-16.545-38.734-16.545-29.637 0-53.663 24.026-53.663 53.663s24.026 53.663 53.663 53.663c10.375 0 20.056-2.952 28.266-8.051 9.767 10.19 23.504 16.544 38.734 16.544 29.637 0 53.663-24.026 53.663-53.663 0-29.636-24.026-53.662-53.663-53.662z"/><circle cx="325.989" cy="106.661" r="53.663"/><path d="m386.52 512h-261.04c-21.754 0-40.278-15.821-43.68-37.308l-54.483-344.069c-2.654-16.764 14.331-29.797 29.837-22.894l70.623 31.441c6.875 3.061 14.725 3.061 21.6 0l80.85-35.995c16.406-7.304 35.14-7.304 51.545 0l80.85 35.995c6.875 3.061 14.725 3.061 21.6 0l70.623-31.441c15.506-6.903 32.491 6.13 29.837 22.894l-54.482 344.069c-3.402 21.487-21.926 37.308-43.68 37.308z"/></g><path d="m435.731 439.761 45.244-285.726-75.224 33.49c-10.241 4.56-21.118 6.872-32.328 6.872-1.522 0-3.037-.051-4.546-.136l-22.198 245.5z" fill="#e7889d"/><path d="m165.322 439.761-22.198-245.5c-1.51.085-3.024.136-4.547.136-11.21 0-22.087-2.312-32.328-6.872l-75.224-33.49 45.244 285.726z" fill="#e7889d"/><path d="m149.398 439.761c-23.638-64.748-32.926-158.63-35.957-249.453-2.428-.812-4.829-1.731-7.192-2.783l-75.224-33.49 45.244 285.726z" fill="#e16e7e"/><path d="m480.975 154.035 3.707-23.412c2.655-16.764-14.331-29.798-29.837-22.894l-70.623 31.441c-6.875 3.061-14.725 3.061-21.6 0l-80.85-35.995c-16.405-7.304-35.139-7.304-51.545 0l-80.85 35.995c-6.875 3.061-14.725 3.061-21.6 0l-70.623-31.441c-15.506-6.903-32.491 6.13-29.837 22.894l3.707 23.412 75.224 33.49c10.241 4.56 21.118 6.872 32.328 6.872 11.211 0 22.087-2.312 32.328-6.872l80.849-35.994c1.345-.599 2.773-.902 4.245-.902s2.9.304 4.245.902l80.849 35.994c10.241 4.56 21.118 6.872 32.328 6.872 11.211 0 22.087-2.312 32.328-6.872z" fill="#a3defe"/><path d="m76.269 439.761 5.531 34.931c3.402 21.487 21.926 37.308 43.68 37.308h261.04c21.754 0 40.278-15.821 43.68-37.308l5.531-34.931z" fill="#a3defe"/><path d="m81.8 474.692c3.402 21.487 21.926 37.308 43.68 37.308h72.638c-20.733-13.545-36.611-39.067-48.721-72.239h-73.128z" fill="#7acefa"/><path d="m31.025 154.035 75.224 33.49c2.363 1.052 4.764 1.971 7.192 2.783-.654-19.598-1.016-39.052-1.169-58.041l-55.117-24.538c-15.506-6.903-32.491 6.13-29.837 22.894z" fill="#7acefa"/><ellipse cx="256" cy="307.467" fill="#a3defe" rx="130.869" ry="82.104"/><g><g fill="#fff"><ellipse cx="174.042" cy="328.442" rx="30.241" ry="24.082"/><ellipse cx="337.958" cy="328.442" rx="30.241" ry="24.082"/></g><g fill="#4e5660"><path d="m191.667 312.759c-4.142 0-7.5-3.358-7.5-7.5v-12.362c0-4.142 3.358-7.5 7.5-7.5s7.5 3.358 7.5 7.5v12.362c0 4.142-3.358 7.5-7.5 7.5z"/><path d="m320.333 312.759c-4.142 0-7.5-3.358-7.5-7.5v-12.362c0-4.142 3.358-7.5 7.5-7.5s7.5 3.358 7.5 7.5v12.362c0 4.142-3.357 7.5-7.5 7.5z"/><path d="m256 320.119c-8.668 0-16.911-3.754-22.615-10.299-2.722-3.122-2.396-7.86.726-10.582s7.86-2.397 10.582.726c2.855 3.276 6.977 5.155 11.308 5.155s8.452-1.879 11.307-5.155c2.721-3.123 7.458-3.448 10.582-.726 3.122 2.721 3.448 7.459.726 10.582-5.705 6.545-13.948 10.299-22.616 10.299z"/></g></g></g></svg>